<svg xmlns="http://www.w3.org/2000/svg" viewBox="0 0 64 64" fill="none">
    <circle cx="32" cy="32" r="28" fill="#FFF3E0"/>
    <circle cx="32" cy="32" r="24" fill="#FFE0B2"/>
    <ellipse cx="32" cy="28" rx="16" ry="12" fill="#FF9800" opacity="0.3"/>
    <path d="M20 24c0-2 2-4 4-4h16c2 0 4 2 4 4v4c0 6-4 12-12 12s-12-6-12-12v-4z" fill="#FF9800"/>
    <path d="M24 20c0-1 1-2 2-2h12c1 0 2 1 2 2v2c0 4-3 8-8 8s-8-4-8-8v-2z" fill="#FFB74D"/>
    <path d="M28 18c0-1 1-2 2-2h4c1 0 2 1 2 2v1c0 2-1 4-4 4s-4-2-4-4v-1z" fill="#FFCC80"/>
    <circle cx="26" cy="38" r="3" fill="#E65100" opacity="0.6"/>
    <circle cx="38" cy="38" r="3" fill="#E65100" opacity="0.6"/>
    <circle cx="32" cy="42" r="2.5" fill="#E65100" opacity="0.6"/>
    <path d="M18 28l-4-2M46 28l4-2M32 16v-4" stroke="#FF9800" stroke-width="2" stroke-linecap="round" opacity="0.5"/>
</svg>
